<svg width="154" height="132" viewBox="0 0 154 132" fill="none" xmlns="http://www.w3.org/2000/svg">
<rect width="153.405" height="132" fill="#5093F9"/>
<path d="M61.2376 31.9091V61H55.087V31.9091H61.2376ZM99.8881 31.9091V61H94.5756L81.9194 42.6903H81.7063V61H75.5558V31.9091H80.9535L93.5103 50.2045H93.766V31.9091H99.8881ZM74.0092 72.9091V102H68.6967L56.0405 83.6903H55.8274V102H49.6768V72.9091H55.0746L67.6314 91.2045H67.8871V72.9091H74.0092ZM105.824 87.4545C105.824 90.6269 105.223 93.3258 104.02 95.5511C102.827 97.7765 101.198 99.4763 99.1335 100.651C97.0786 101.815 94.768 102.398 92.2017 102.398C89.6165 102.398 87.2964 101.811 85.2415 100.636C83.1866 99.4621 81.5625 97.7623 80.3693 95.5369C79.1761 93.3116 78.5795 90.6174 78.5795 87.4545C78.5795 84.2822 79.1761 81.5833 80.3693 79.358C81.5625 77.1326 83.1866 75.4375 85.2415 74.2727C87.2964 73.0985 89.6165 72.5114 92.2017 72.5114C94.768 72.5114 97.0786 73.0985 99.1335 74.2727C101.198 75.4375 102.827 77.1326 104.02 79.358C105.223 81.5833 105.824 84.2822 105.824 87.4545ZM99.5881 87.4545C99.5881 85.3996 99.2803 83.6667 98.6648 82.2557C98.0587 80.8447 97.2017 79.7746 96.0938 79.0455C94.9858 78.3163 93.6884 77.9517 92.2017 77.9517C90.715 77.9517 89.4176 78.3163 88.3097 79.0455C87.2017 79.7746 86.34 80.8447 85.7244 82.2557C85.1184 83.6667 84.8153 85.3996 84.8153 87.4545C84.8153 89.5095 85.1184 91.2424 85.7244 92.6534C86.34 94.0644 87.2017 95.1345 88.3097 95.8636C89.4176 96.5928 90.715 96.9574 92.2017 96.9574C93.6884 96.9574 94.9858 96.5928 96.0938 95.8636C97.2017 95.1345 98.0587 94.0644 98.6648 92.6534C99.2803 91.2424 99.5881 89.5095 99.5881 87.4545Z" fill="#F0F0F0"/>
</svg>
